<svg xmlns="http://www.w3.org/2000/svg" width="1024" height="1024" viewBox="0 0 1024 1024">
    <path d="M932.992 958.752l-22.688 22.688c-25.12 25.088-65.76 25.088-90.816 0L637.856 799.872c-20.992-21.056-23.328-52.608-8.992-77.184l-99.328-99.264c-53.408 39.616-119.296 63.328-190.88 63.328-177.28 0-320.992-143.712-320.992-320.992 0-177.312 143.712-321.024 320.992-321.024 177.312 0 320.992 143.712 320.992 321.024 0 82.528-31.36 157.536-82.56 214.4l97.12 97.12c24.576-14.304 56.128-12 77.12 9.056L932.96 867.904c25.088 25.12 25.088 65.792.032 90.848zM578.816 364.448c0-132.96-107.808-240.736-240.768-240.736S97.28 231.456 97.28 364.448s107.776 240.736 240.736 240.736 240.8-107.776 240.8-240.736z"/>
</svg>
